<svg width="16" height="16" viewBox="0 0 24.00 24.00" fill="none" xmlns="http://www.w3.org/2000/svg" stroke="#000000" stroke-width="0.43200000000000005"><g id="SVGRepo_bgCarrier" stroke-width="0" transform="translate(0,0), scale(1)"></g><g id="SVGRepo_tracerCarrier" stroke-linecap="round" stroke-linejoin="round" stroke="#CCCCCC" stroke-width="0.048"></g><g id="SVGRepo_iconCarrier"> <path d="M13 3C13 2.44772 12.5523 2 12 2C11.4477 2 11 2.44772 11 3V11H3C2.44772 11 2 11.4477 2 12C2 12.5523 2.44772 13 3 13H11V21C11 21.5523 11.4477 22 12 22C12.5523 22 13 21.5523 13 21V13H21C21.5523 13 22 12.5523 22 12C22 11.4477 21.5523 11 21 11H13V3Z" fill="#0F0F0F"></path> </g></svg>
